<mxfile host="app.diagrams.net" modified="2024-01-02T04:50:51.255Z" agent="Mozilla/5.0 (Windows NT 10.0; Win64; x64) AppleWebKit/537.36 (KHTML, like Gecko) Chrome/120.0.0.0 Safari/537.36" etag="Y5TSbV65oUsyNGYx72ac" version="22.1.16" type="github">
  <diagram id="prtHgNgQTEPvFCAcTncT" name="Page-1">
    <mxGraphModel dx="1434" dy="780" grid="1" gridSize="10" guides="1" tooltips="1" connect="1" arrows="1" fold="1" page="1" pageScale="1" pageWidth="827" pageHeight="1169" math="0" shadow="0">
      <root>
        <mxCell id="0" />
        <mxCell id="1" parent="0" />
        <mxCell id="ExuNVrgQkDvQzKMcUa6Z-63" value="" style="endArrow=none;html=1;rounded=0;elbow=vertical;exitX=1;exitY=0.5;exitDx=0;exitDy=0;movable=1;resizable=1;rotatable=1;deletable=1;editable=1;locked=0;connectable=1;" edge="1" parent="1">
          <mxGeometry width="50" height="50" relative="1" as="geometry">
            <mxPoint x="644.5" y="200" as="sourcePoint" />
            <mxPoint x="645" y="250" as="targetPoint" />
          </mxGeometry>
        </mxCell>
        <mxCell id="ExuNVrgQkDvQzKMcUa6Z-43" value="" style="endArrow=none;html=1;rounded=0;elbow=vertical;exitX=1;exitY=0.5;exitDx=0;exitDy=0;movable=1;resizable=1;rotatable=1;deletable=1;editable=1;locked=0;connectable=1;" edge="1" parent="1">
          <mxGeometry width="50" height="50" relative="1" as="geometry">
            <mxPoint x="674.5" y="90" as="sourcePoint" />
            <mxPoint x="674.5" y="160.5" as="targetPoint" />
          </mxGeometry>
        </mxCell>
        <mxCell id="ExuNVrgQkDvQzKMcUa6Z-42" value="" style="endArrow=none;html=1;rounded=0;elbow=vertical;exitX=1;exitY=0.5;exitDx=0;exitDy=0;movable=1;resizable=1;rotatable=1;deletable=1;editable=1;locked=0;connectable=1;" edge="1" parent="1">
          <mxGeometry width="50" height="50" relative="1" as="geometry">
            <mxPoint x="514.5" y="150" as="sourcePoint" />
            <mxPoint x="515" y="280" as="targetPoint" />
          </mxGeometry>
        </mxCell>
        <mxCell id="ExuNVrgQkDvQzKMcUa6Z-1" value="&lt;font style=&quot;font-size: 18px;&quot;&gt;메인 화면&lt;/font&gt;" style="rounded=1;whiteSpace=wrap;html=1;movable=1;resizable=1;rotatable=1;deletable=1;editable=1;locked=0;connectable=1;" vertex="1" parent="1">
          <mxGeometry x="300" y="100" width="120" height="60" as="geometry" />
        </mxCell>
        <mxCell id="ExuNVrgQkDvQzKMcUa6Z-2" value="로그인" style="rounded=1;whiteSpace=wrap;html=1;movable=1;resizable=1;rotatable=1;deletable=1;editable=1;locked=0;connectable=1;" vertex="1" parent="1">
          <mxGeometry x="480" y="110" width="70" height="40" as="geometry" />
        </mxCell>
        <mxCell id="ExuNVrgQkDvQzKMcUa6Z-9" value="비밀번호찾기" style="rounded=1;whiteSpace=wrap;html=1;movable=1;resizable=1;rotatable=1;deletable=1;editable=1;locked=0;connectable=1;" vertex="1" parent="1">
          <mxGeometry x="630" y="150" width="90" height="20" as="geometry" />
        </mxCell>
        <mxCell id="ExuNVrgQkDvQzKMcUa6Z-10" value="아이디찾기" style="rounded=1;whiteSpace=wrap;html=1;movable=1;resizable=1;rotatable=1;deletable=1;editable=1;locked=0;connectable=1;" vertex="1" parent="1">
          <mxGeometry x="630" y="120" width="90" height="20" as="geometry" />
        </mxCell>
        <mxCell id="ExuNVrgQkDvQzKMcUa6Z-11" value="회원가입&lt;span style=&quot;white-space: pre;&quot;&gt;&#x9;&lt;/span&gt;" style="rounded=1;whiteSpace=wrap;html=1;movable=1;resizable=1;rotatable=1;deletable=1;editable=1;locked=0;connectable=1;" vertex="1" parent="1">
          <mxGeometry x="630" y="90" width="90" height="20" as="geometry" />
        </mxCell>
        <mxCell id="ExuNVrgQkDvQzKMcUa6Z-17" value="실시간 검색 순위 MBTI 유형" style="rounded=1;whiteSpace=wrap;html=1;movable=1;resizable=1;rotatable=1;deletable=1;editable=1;locked=0;connectable=1;" vertex="1" parent="1">
          <mxGeometry x="130" y="150" width="90" height="30" as="geometry" />
        </mxCell>
        <mxCell id="ExuNVrgQkDvQzKMcUa6Z-18" value="광고 /&amp;nbsp; 홍보" style="rounded=1;whiteSpace=wrap;html=1;movable=1;resizable=1;rotatable=1;deletable=1;editable=1;locked=0;connectable=1;" vertex="1" parent="1">
          <mxGeometry x="130" y="120" width="90" height="20" as="geometry" />
        </mxCell>
        <mxCell id="ExuNVrgQkDvQzKMcUa6Z-19" value="MBTI 랜덤 소개" style="rounded=1;whiteSpace=wrap;html=1;movable=1;resizable=1;rotatable=1;deletable=1;editable=1;locked=0;connectable=1;" vertex="1" parent="1">
          <mxGeometry x="130" y="90" width="90" height="20" as="geometry" />
        </mxCell>
        <mxCell id="ExuNVrgQkDvQzKMcUa6Z-20" value="회원 탈퇴" style="rounded=1;whiteSpace=wrap;html=1;movable=1;resizable=1;rotatable=1;deletable=1;editable=1;locked=0;connectable=1;" vertex="1" parent="1">
          <mxGeometry x="470" y="260" width="90" height="20" as="geometry" />
        </mxCell>
        <mxCell id="ExuNVrgQkDvQzKMcUa6Z-21" value="정보 수정&lt;span style=&quot;white-space: pre;&quot;&gt;&#x9;&lt;/span&gt;" style="rounded=1;whiteSpace=wrap;html=1;movable=1;resizable=1;rotatable=1;deletable=1;editable=1;locked=0;connectable=1;" vertex="1" parent="1">
          <mxGeometry x="470" y="230" width="90" height="20" as="geometry" />
        </mxCell>
        <mxCell id="ExuNVrgQkDvQzKMcUa6Z-22" value="마이페이지" style="rounded=1;whiteSpace=wrap;html=1;movable=1;resizable=1;rotatable=1;deletable=1;editable=1;locked=0;connectable=1;" vertex="1" parent="1">
          <mxGeometry x="470" y="200" width="90" height="20" as="geometry" />
        </mxCell>
        <mxCell id="ExuNVrgQkDvQzKMcUa6Z-24" value="" style="endArrow=none;html=1;rounded=0;elbow=vertical;exitX=1;exitY=0.5;exitDx=0;exitDy=0;entryX=0;entryY=0.5;entryDx=0;entryDy=0;movable=1;resizable=1;rotatable=1;deletable=1;editable=1;locked=0;connectable=1;" edge="1" parent="1" source="ExuNVrgQkDvQzKMcUa6Z-18" target="ExuNVrgQkDvQzKMcUa6Z-1">
          <mxGeometry width="50" height="50" relative="1" as="geometry">
            <mxPoint x="230" y="155" as="sourcePoint" />
            <mxPoint x="280" y="105" as="targetPoint" />
          </mxGeometry>
        </mxCell>
        <mxCell id="ExuNVrgQkDvQzKMcUa6Z-26" value="" style="endArrow=none;html=1;rounded=0;elbow=vertical;movable=1;resizable=1;rotatable=1;deletable=1;editable=1;locked=0;connectable=1;" edge="1" parent="1">
          <mxGeometry width="50" height="50" relative="1" as="geometry">
            <mxPoint x="260" y="165" as="sourcePoint" />
            <mxPoint x="260" y="100" as="targetPoint" />
          </mxGeometry>
        </mxCell>
        <mxCell id="ExuNVrgQkDvQzKMcUa6Z-33" value="" style="endArrow=none;html=1;rounded=0;elbow=vertical;exitX=1;exitY=0.5;exitDx=0;exitDy=0;movable=1;resizable=1;rotatable=1;deletable=1;editable=1;locked=0;connectable=1;" edge="1" parent="1" source="ExuNVrgQkDvQzKMcUa6Z-17">
          <mxGeometry width="50" height="50" relative="1" as="geometry">
            <mxPoint x="220" y="164.5" as="sourcePoint" />
            <mxPoint x="260" y="165" as="targetPoint" />
          </mxGeometry>
        </mxCell>
        <mxCell id="ExuNVrgQkDvQzKMcUa6Z-34" value="" style="endArrow=none;html=1;rounded=0;elbow=vertical;movable=1;resizable=1;rotatable=1;deletable=1;editable=1;locked=0;connectable=1;" edge="1" parent="1">
          <mxGeometry width="50" height="50" relative="1" as="geometry">
            <mxPoint x="220" y="100" as="sourcePoint" />
            <mxPoint x="260" y="100" as="targetPoint" />
          </mxGeometry>
        </mxCell>
        <mxCell id="ExuNVrgQkDvQzKMcUa6Z-36" value="" style="endArrow=none;html=1;rounded=0;elbow=vertical;exitX=1;exitY=0.5;exitDx=0;exitDy=0;entryX=0;entryY=0.5;entryDx=0;entryDy=0;movable=1;resizable=1;rotatable=1;deletable=1;editable=1;locked=0;connectable=1;" edge="1" parent="1" target="ExuNVrgQkDvQzKMcUa6Z-2">
          <mxGeometry width="50" height="50" relative="1" as="geometry">
            <mxPoint x="420" y="129.5" as="sourcePoint" />
            <mxPoint x="470" y="130" as="targetPoint" />
          </mxGeometry>
        </mxCell>
        <mxCell id="ExuNVrgQkDvQzKMcUa6Z-44" value="" style="endArrow=none;html=1;rounded=0;elbow=vertical;exitX=1;exitY=0.5;exitDx=0;exitDy=0;movable=1;resizable=1;rotatable=1;deletable=1;editable=1;locked=0;connectable=1;" edge="1" parent="1">
          <mxGeometry width="50" height="50" relative="1" as="geometry">
            <mxPoint x="590" y="99.5" as="sourcePoint" />
            <mxPoint x="590" y="160" as="targetPoint" />
          </mxGeometry>
        </mxCell>
        <mxCell id="ExuNVrgQkDvQzKMcUa6Z-45" value="" style="endArrow=none;html=1;rounded=0;elbow=vertical;movable=1;resizable=1;rotatable=1;deletable=1;editable=1;locked=0;connectable=1;" edge="1" parent="1">
          <mxGeometry width="50" height="50" relative="1" as="geometry">
            <mxPoint x="550" y="129.5" as="sourcePoint" />
            <mxPoint x="590" y="130" as="targetPoint" />
          </mxGeometry>
        </mxCell>
        <mxCell id="ExuNVrgQkDvQzKMcUa6Z-51" value="" style="endArrow=none;html=1;rounded=0;elbow=vertical;exitX=1;exitY=0.5;exitDx=0;exitDy=0;movable=1;resizable=1;rotatable=1;deletable=1;editable=1;locked=0;connectable=1;" edge="1" parent="1">
          <mxGeometry width="50" height="50" relative="1" as="geometry">
            <mxPoint x="590" y="100" as="sourcePoint" />
            <mxPoint x="630" y="100" as="targetPoint" />
          </mxGeometry>
        </mxCell>
        <mxCell id="ExuNVrgQkDvQzKMcUa6Z-53" value="" style="endArrow=none;html=1;rounded=0;elbow=vertical;exitX=1;exitY=0.5;exitDx=0;exitDy=0;movable=1;resizable=1;rotatable=1;deletable=1;editable=1;locked=0;connectable=1;" edge="1" parent="1">
          <mxGeometry width="50" height="50" relative="1" as="geometry">
            <mxPoint x="590" y="160" as="sourcePoint" />
            <mxPoint x="630" y="160" as="targetPoint" />
          </mxGeometry>
        </mxCell>
        <mxCell id="ExuNVrgQkDvQzKMcUa6Z-56" value="" style="endArrow=none;html=1;rounded=0;elbow=vertical;exitX=1;exitY=0.5;exitDx=0;exitDy=0;movable=1;resizable=1;rotatable=1;deletable=1;editable=1;locked=0;connectable=1;" edge="1" parent="1">
          <mxGeometry width="50" height="50" relative="1" as="geometry">
            <mxPoint x="590" y="130" as="sourcePoint" />
            <mxPoint x="630" y="130" as="targetPoint" />
          </mxGeometry>
        </mxCell>
        <mxCell id="ExuNVrgQkDvQzKMcUa6Z-57" value="" style="endArrow=none;html=1;rounded=0;elbow=vertical;exitX=0.5;exitY=1;exitDx=0;exitDy=0;movable=1;resizable=1;rotatable=1;deletable=1;editable=1;locked=0;connectable=1;" edge="1" parent="1" source="ExuNVrgQkDvQzKMcUa6Z-1">
          <mxGeometry width="50" height="50" relative="1" as="geometry">
            <mxPoint x="359.5" y="159.5" as="sourcePoint" />
            <mxPoint x="360" y="330" as="targetPoint" />
          </mxGeometry>
        </mxCell>
        <mxCell id="ExuNVrgQkDvQzKMcUa6Z-58" value="" style="endArrow=none;html=1;rounded=0;elbow=vertical;exitX=1;exitY=0.5;exitDx=0;exitDy=0;movable=1;resizable=1;rotatable=1;deletable=1;editable=1;locked=0;connectable=1;" edge="1" parent="1">
          <mxGeometry width="50" height="50" relative="1" as="geometry">
            <mxPoint x="560" y="209.5" as="sourcePoint" />
            <mxPoint x="600" y="209.5" as="targetPoint" />
          </mxGeometry>
        </mxCell>
        <mxCell id="ExuNVrgQkDvQzKMcUa6Z-61" value="동일 MBTI&lt;br&gt;직업 추천" style="rounded=1;whiteSpace=wrap;html=1;movable=1;resizable=1;rotatable=1;deletable=1;editable=1;locked=0;connectable=1;" vertex="1" parent="1">
          <mxGeometry x="600" y="230" width="90" height="30" as="geometry" />
        </mxCell>
        <mxCell id="ExuNVrgQkDvQzKMcUa6Z-62" value="동일 MBTI&lt;br&gt;유명인 소개" style="rounded=1;whiteSpace=wrap;html=1;movable=1;resizable=1;rotatable=1;deletable=1;editable=1;locked=0;connectable=1;" vertex="1" parent="1">
          <mxGeometry x="600" y="190" width="90" height="30" as="geometry" />
        </mxCell>
        <mxCell id="ExuNVrgQkDvQzKMcUa6Z-64" value="" style="endArrow=none;html=1;rounded=0;elbow=vertical;movable=1;resizable=1;rotatable=1;deletable=1;editable=1;locked=0;connectable=1;" edge="1" parent="1">
          <mxGeometry width="50" height="50" relative="1" as="geometry">
            <mxPoint x="580" y="240" as="sourcePoint" />
            <mxPoint x="580" y="210" as="targetPoint" />
          </mxGeometry>
        </mxCell>
        <mxCell id="ExuNVrgQkDvQzKMcUa6Z-65" value="" style="endArrow=none;html=1;rounded=0;elbow=vertical;exitX=1;exitY=0.5;exitDx=0;exitDy=0;movable=1;resizable=1;rotatable=1;deletable=1;editable=1;locked=0;connectable=1;" edge="1" parent="1">
          <mxGeometry width="50" height="50" relative="1" as="geometry">
            <mxPoint x="580" y="239.5" as="sourcePoint" />
            <mxPoint x="600" y="240" as="targetPoint" />
          </mxGeometry>
        </mxCell>
        <mxCell id="ExuNVrgQkDvQzKMcUa6Z-67" value="&lt;font style=&quot;font-size: 18px;&quot;&gt;성격 유형 검사&lt;/font&gt;" style="rounded=1;whiteSpace=wrap;html=1;movable=1;resizable=1;rotatable=1;deletable=1;editable=1;locked=0;connectable=1;" vertex="1" parent="1">
          <mxGeometry x="115" y="380" width="120" height="60" as="geometry" />
        </mxCell>
        <mxCell id="ExuNVrgQkDvQzKMcUa6Z-68" value="&lt;font style=&quot;font-size: 18px;&quot;&gt;테스트 하기&lt;/font&gt;" style="rounded=1;whiteSpace=wrap;html=1;movable=1;resizable=1;rotatable=1;deletable=1;editable=1;locked=0;connectable=1;" vertex="1" parent="1">
          <mxGeometry x="300" y="380" width="120" height="60" as="geometry" />
        </mxCell>
        <mxCell id="ExuNVrgQkDvQzKMcUa6Z-69" value="&lt;font style=&quot;font-size: 18px;&quot;&gt;매칭하기&lt;/font&gt;" style="rounded=1;whiteSpace=wrap;html=1;movable=1;resizable=1;rotatable=1;deletable=1;editable=1;locked=0;connectable=1;" vertex="1" parent="1">
          <mxGeometry x="480" y="380" width="120" height="60" as="geometry" />
        </mxCell>
        <mxCell id="ExuNVrgQkDvQzKMcUa6Z-70" value="" style="endArrow=none;html=1;rounded=0;elbow=vertical;movable=1;resizable=1;rotatable=1;deletable=1;editable=1;locked=0;connectable=1;" edge="1" parent="1">
          <mxGeometry width="50" height="50" relative="1" as="geometry">
            <mxPoint x="710" y="330" as="sourcePoint" />
            <mxPoint x="160" y="330" as="targetPoint" />
          </mxGeometry>
        </mxCell>
        <mxCell id="ExuNVrgQkDvQzKMcUa6Z-71" value="" style="endArrow=none;html=1;rounded=0;elbow=vertical;exitX=1;exitY=0.5;exitDx=0;exitDy=0;movable=1;resizable=1;rotatable=1;deletable=1;editable=1;locked=0;connectable=1;" edge="1" parent="1">
          <mxGeometry width="50" height="50" relative="1" as="geometry">
            <mxPoint x="530" y="330" as="sourcePoint" />
            <mxPoint x="530" y="380" as="targetPoint" />
          </mxGeometry>
        </mxCell>
        <mxCell id="ExuNVrgQkDvQzKMcUa6Z-72" value="" style="endArrow=none;html=1;rounded=0;elbow=vertical;movable=1;resizable=1;rotatable=1;deletable=1;editable=1;locked=0;connectable=1;" edge="1" parent="1">
          <mxGeometry width="50" height="50" relative="1" as="geometry">
            <mxPoint x="160" y="330" as="sourcePoint" />
            <mxPoint x="160" y="380" as="targetPoint" />
          </mxGeometry>
        </mxCell>
        <mxCell id="ExuNVrgQkDvQzKMcUa6Z-79" value="" style="endArrow=none;html=1;rounded=0;elbow=vertical;exitX=1;exitY=0.5;exitDx=0;exitDy=0;movable=1;resizable=1;rotatable=1;deletable=1;editable=1;locked=0;connectable=1;" edge="1" parent="1">
          <mxGeometry width="50" height="50" relative="1" as="geometry">
            <mxPoint x="710" y="330" as="sourcePoint" />
            <mxPoint x="710" y="380" as="targetPoint" />
          </mxGeometry>
        </mxCell>
        <mxCell id="ExuNVrgQkDvQzKMcUa6Z-80" value="&lt;span style=&quot;font-size: 18px;&quot;&gt;유료 결제&lt;/span&gt;" style="rounded=1;whiteSpace=wrap;html=1;movable=1;resizable=1;rotatable=1;deletable=1;editable=1;locked=0;connectable=1;" vertex="1" parent="1">
          <mxGeometry x="650" y="380" width="120" height="60" as="geometry" />
        </mxCell>
        <mxCell id="ExuNVrgQkDvQzKMcUa6Z-81" value="" style="endArrow=none;html=1;rounded=0;elbow=vertical;exitX=1;exitY=0.5;exitDx=0;exitDy=0;movable=1;resizable=1;rotatable=1;deletable=1;editable=1;locked=0;connectable=1;" edge="1" parent="1">
          <mxGeometry width="50" height="50" relative="1" as="geometry">
            <mxPoint x="359.5" y="330" as="sourcePoint" />
            <mxPoint x="359.5" y="380" as="targetPoint" />
          </mxGeometry>
        </mxCell>
        <mxCell id="ExuNVrgQkDvQzKMcUa6Z-86" value="" style="endArrow=none;html=1;rounded=0;elbow=vertical;exitX=1;exitY=0.5;exitDx=0;exitDy=0;movable=1;resizable=1;rotatable=1;deletable=1;editable=1;locked=0;connectable=1;entryX=0.444;entryY=0.5;entryDx=0;entryDy=0;entryPerimeter=0;" edge="1" parent="1" target="ExuNVrgQkDvQzKMcUa6Z-88">
          <mxGeometry width="50" height="50" relative="1" as="geometry">
            <mxPoint x="355" y="440" as="sourcePoint" />
            <mxPoint x="355" y="550" as="targetPoint" />
          </mxGeometry>
        </mxCell>
        <mxCell id="ExuNVrgQkDvQzKMcUa6Z-88" value="검사 결과" style="rounded=1;whiteSpace=wrap;html=1;movable=1;resizable=1;rotatable=1;deletable=1;editable=1;locked=0;connectable=1;" vertex="1" parent="1">
          <mxGeometry x="315" y="500" width="90" height="20" as="geometry" />
        </mxCell>
        <mxCell id="ExuNVrgQkDvQzKMcUa6Z-89" value="테스트 검사" style="rounded=1;whiteSpace=wrap;html=1;movable=1;resizable=1;rotatable=1;deletable=1;editable=1;locked=0;connectable=1;" vertex="1" parent="1">
          <mxGeometry x="315" y="470" width="90" height="20" as="geometry" />
        </mxCell>
        <mxCell id="ExuNVrgQkDvQzKMcUa6Z-93" value="" style="endArrow=none;html=1;rounded=0;elbow=vertical;exitX=1;exitY=0.5;exitDx=0;exitDy=0;movable=1;resizable=1;rotatable=1;deletable=1;editable=1;locked=0;connectable=1;entryX=0.444;entryY=0.5;entryDx=0;entryDy=0;entryPerimeter=0;" edge="1" parent="1" target="ExuNVrgQkDvQzKMcUa6Z-94">
          <mxGeometry width="50" height="50" relative="1" as="geometry">
            <mxPoint x="155" y="440" as="sourcePoint" />
            <mxPoint x="155" y="550" as="targetPoint" />
          </mxGeometry>
        </mxCell>
        <mxCell id="ExuNVrgQkDvQzKMcUa6Z-94" value="MBTI별 직업 / 유명인 소개" style="rounded=1;whiteSpace=wrap;html=1;movable=1;resizable=1;rotatable=1;deletable=1;editable=1;locked=0;connectable=1;" vertex="1" parent="1">
          <mxGeometry x="115" y="500" width="90" height="50" as="geometry" />
        </mxCell>
        <mxCell id="ExuNVrgQkDvQzKMcUa6Z-95" value="MBTI 유형 소개" style="rounded=1;whiteSpace=wrap;html=1;movable=1;resizable=1;rotatable=1;deletable=1;editable=1;locked=0;connectable=1;" vertex="1" parent="1">
          <mxGeometry x="115" y="470" width="90" height="20" as="geometry" />
        </mxCell>
      </root>
    </mxGraphModel>
  </diagram>
</mxfile>
